<svg width="200" height="200" viewBox="0 0 200 200" fill="none" xmlns="http://www.w3.org/2000/svg">
<rect x="0.5" y="0.5" width="199" height="199" rx="11.5" fill="#171717" stroke="#EDF1FD"/>
<path d="M48.6271 115.833H67.3033V109.788H56.13V88.1969H48.6271V115.833ZM96.0327 102.015C96.0327 92.785 90.0952 87.819 82.5923 87.819C75.0355 87.819 69.152 92.785 69.152 102.015C69.152 111.191 75.0355 116.211 82.5923 116.211C90.0952 116.211 96.0327 111.245 96.0327 102.015ZM88.3139 102.015C88.3139 106.981 86.3167 109.68 82.5923 109.68C78.8679 109.68 76.8707 106.981 76.8707 102.015C76.8707 97.0492 78.8679 94.3503 82.5923 94.3503C86.3167 94.3503 88.3139 97.0492 88.3139 102.015ZM117.452 97.319H125.035C124.455 91.7729 119.422 87.819 112.89 87.819C105.442 87.819 99.3961 92.9469 99.3961 102.069C99.3961 110.813 104.875 116.211 112.944 116.211C120.177 116.211 125.359 111.785 125.359 104.228V100.396H113.106V105.74H118.126C118.059 108.141 116.358 109.68 112.998 109.68C109.112 109.68 107.115 106.819 107.115 101.961C107.115 97.1706 109.274 94.3503 113.052 94.3503C115.4 94.3503 116.993 95.4298 117.452 97.319ZM155.63 102.015C155.63 92.785 149.693 87.819 142.19 87.819C134.633 87.819 128.75 92.785 128.75 102.015C128.75 111.191 134.633 116.211 142.19 116.211C149.693 116.211 155.63 111.245 155.63 102.015ZM147.912 102.015C147.912 106.981 145.914 109.68 142.19 109.68C138.466 109.68 136.468 106.981 136.468 102.015C136.468 97.0492 138.466 94.3503 142.19 94.3503C145.914 94.3503 147.912 97.0492 147.912 102.015Z" fill="white"/>
</svg>
