<svg width="24" height="18" viewBox="0 0 24 18" fill="none" xmlns="http://www.w3.org/2000/svg">
<path d="M23.6938 13.993L2.88231 17.6312C2.80114 17.6454 2.71765 17.6268 2.65022 17.5794C2.58279 17.532 2.53694 17.4598 2.52275 17.3787L0.382605 5.13662C0.368415 5.05545 0.387051 4.97197 0.434413 4.90454C0.481774 4.83711 0.553983 4.79125 0.635153 4.77706L21.4466 1.13882C21.5278 1.12463 21.6113 1.14326 21.6787 1.19062C21.7461 1.23798 21.792 1.31019 21.8062 1.39136L23.9463 13.6334C23.9605 13.7146 23.9419 13.7981 23.8945 13.8655C23.8472 13.9329 23.775 13.9788 23.6938 13.993ZM3.08135 16.9656L23.2807 13.4344L21.2476 1.80442L1.04821 5.33566L3.08135 16.9656Z" fill="#8C7AA4" stroke="#8C7AA4" stroke-width="0.5"/>
<path d="M20.2143 12.6521L5.70026 15.1894C5.62006 15.2034 5.53758 15.185 5.47096 15.1382C5.40434 15.0914 5.35904 15.0201 5.34502 14.9399C5.30296 14.6993 5.16705 14.4853 4.96719 14.3449C4.76733 14.2045 4.51989 14.1493 4.27931 14.1914C4.19911 14.2054 4.11663 14.187 4.05001 14.1402C3.98339 14.0934 3.93809 14.022 3.92407 13.9419L2.86685 7.89433C2.85283 7.81413 2.87124 7.73165 2.91803 7.66503C2.96482 7.59841 3.03616 7.55311 3.11636 7.53909C3.35695 7.49703 3.57097 7.36112 3.71135 7.16126C3.85173 6.9614 3.90696 6.71396 3.8649 6.47338C3.85089 6.39318 3.8693 6.3107 3.91609 6.24408C3.96288 6.17746 4.03422 6.13216 4.11442 6.11814L18.6285 3.5808C18.7087 3.56678 18.7912 3.58519 18.8578 3.63199C18.9244 3.67878 18.9697 3.75012 18.9837 3.83032C19.0258 4.0709 19.1617 4.28493 19.3615 4.42531C19.5614 4.56569 19.8088 4.62092 20.0494 4.57886C20.1296 4.56484 20.2121 4.58325 20.2787 4.63005C20.3453 4.67684 20.3906 4.74818 20.4047 4.82838L21.4619 10.8759C21.4759 10.9561 21.4575 11.0386 21.4107 11.1052C21.3639 11.1718 21.2926 11.2171 21.2124 11.2311C20.9718 11.2732 20.7578 11.4091 20.6174 11.609C20.477 11.8088 20.4218 12.0563 20.4638 12.2969C20.4778 12.377 20.4594 12.4595 20.4126 12.5261C20.3658 12.5928 20.2945 12.6381 20.2143 12.6521ZM5.86667 14.5371L19.8365 12.0949C19.8455 11.7942 19.9425 11.5026 20.1154 11.2564C20.2884 11.0102 20.5297 10.82 20.8096 10.7095L19.8475 5.20624C19.5467 5.19719 19.2552 5.10019 19.009 4.92724C18.7628 4.7543 18.5726 4.51298 18.4621 4.23313L4.49228 6.67532C4.48323 6.97608 4.38623 7.26759 4.21329 7.51382C4.04034 7.76004 3.79902 7.95019 3.51917 8.06074L4.48125 13.564C4.78201 13.573 5.07352 13.67 5.31975 13.843C5.56597 14.0159 5.75612 14.2572 5.86667 14.5371Z" fill="#8C7AA4" stroke="#8C7AA4" stroke-width="0.5"/>
<path d="M17.4656 9.51415C17.263 9.54957 17.0544 9.52411 16.8663 9.441C16.6781 9.35789 16.5189 9.22085 16.4086 9.04722C16.2983 8.87358 16.2421 8.67116 16.2468 8.46553C16.2516 8.2599 16.3173 8.06031 16.4355 7.892C16.5537 7.72369 16.7192 7.59421 16.911 7.51994C17.1028 7.44568 17.3123 7.42996 17.5131 7.47477C17.7138 7.51958 17.8968 7.62291 18.0388 7.7717C18.1808 7.92048 18.2755 8.10804 18.3109 8.31065C18.3584 8.58234 18.296 8.86177 18.1375 9.08747C17.979 9.31317 17.7373 9.46665 17.4656 9.51415ZM17.197 7.97753C17.0957 7.99524 17.0019 8.04259 16.9275 8.1136C16.8531 8.18461 16.8014 8.27608 16.779 8.37645C16.7566 8.47682 16.7645 8.58158 16.8016 8.67749C16.8387 8.77339 16.9035 8.85613 16.9876 8.91524C17.0718 8.97435 17.1716 9.00718 17.2744 9.00957C17.3772 9.01196 17.4784 8.98382 17.5652 8.92869C17.6521 8.87356 17.7206 8.79392 17.7621 8.69985C17.8037 8.60578 17.8164 8.5015 17.7987 8.40019C17.775 8.26435 17.6982 8.1435 17.5854 8.06423C17.4725 7.98497 17.3328 7.95378 17.197 7.97753Z" fill="#8C7AA4" stroke="#8C7AA4" stroke-width="0.2"/>
<path d="M7.22146 11.3047C7.01885 11.3401 6.81029 11.3146 6.62214 11.2315C6.434 11.1484 6.27473 11.0114 6.16447 10.8377C6.05421 10.6641 5.99791 10.4617 6.0027 10.2561C6.00749 10.0504 6.07314 9.85084 6.19137 9.68253C6.30959 9.51421 6.47507 9.38474 6.66687 9.31047C6.85868 9.2362 7.0682 9.22048 7.26895 9.26529C7.46969 9.3101 7.65264 9.41344 7.79465 9.56222C7.93667 9.71101 8.03137 9.89856 8.06679 10.1012C8.11429 10.3729 8.05191 10.6523 7.89338 10.878C7.73485 11.1037 7.49315 11.2572 7.22146 11.3047ZM6.95283 9.76806C6.85152 9.78577 6.75775 9.83312 6.68335 9.90413C6.60896 9.97513 6.55729 10.0666 6.53489 10.167C6.51248 10.2673 6.52034 10.3721 6.55748 10.468C6.59461 10.5639 6.65935 10.6467 6.7435 10.7058C6.82766 10.7649 6.92746 10.7977 7.03027 10.8001C7.13308 10.8025 7.2343 10.7743 7.32112 10.7192C7.40793 10.6641 7.47645 10.5844 7.51801 10.4904C7.55956 10.3963 7.57229 10.292 7.55458 10.1907C7.53083 10.0549 7.45409 9.93402 7.34124 9.85476C7.22839 9.77549 7.08868 9.74431 6.95283 9.76806Z" fill="#8C7AA4" stroke="#8C7AA4" stroke-width="0.2"/>
<path d="M12.5679 11.6901C12.2283 11.7491 11.8792 11.6709 11.5972 11.4728C11.3152 11.2747 11.1232 10.9729 11.0635 10.6334L11.5757 10.5439C11.6113 10.7477 11.7264 10.9289 11.8957 11.0478C12.065 11.1667 12.2745 11.2135 12.4783 11.1779C12.6821 11.1423 12.8634 11.0272 12.9823 10.8579C13.1012 10.6886 13.1479 10.479 13.1123 10.2753C13.0696 10.0307 12.9196 9.7378 12.1338 9.64345C11.084 9.51713 10.7776 8.99796 10.7053 8.5846C10.6459 8.24499 10.7239 7.89569 10.9221 7.61357C11.1202 7.33144 11.4223 7.13959 11.762 7.08022C12.1016 7.02085 12.4509 7.09882 12.733 7.29698C13.0151 7.49515 13.207 7.79727 13.2663 8.13689L12.7541 8.22643C12.7185 8.02266 12.6034 7.84139 12.4341 7.72249C12.2648 7.60359 12.0553 7.55681 11.8515 7.59243C11.6477 7.62805 11.4665 7.74316 11.3476 7.91244C11.2287 8.08171 11.1819 8.29129 11.2175 8.49506C11.2402 8.62491 11.3093 9.02033 12.196 9.12688C13.0388 9.22843 13.5194 9.58465 13.6245 10.1857C13.6835 10.5253 13.6053 10.8744 13.4072 11.1564C13.2091 11.4384 12.9073 11.6304 12.5679 11.6901Z" fill="#8C7AA4" stroke="#8C7AA4" stroke-width="0.2"/>
<path d="M11.416 6.61255L11.9282 6.523L12.0625 7.29132L11.5503 7.38086L11.416 6.61255Z" fill="#8C7AA4" stroke="#8C7AA4" stroke-width="0.2"/>
<path d="M12.2666 11.4785L12.7788 11.389L12.9131 12.1573L12.4009 12.2468L12.2666 11.4785Z" fill="#8C7AA4" stroke="#8C7AA4" stroke-width="0.2"/>
</svg>
