<svg width="20" height="21" viewBox="0 0 20 21" fill="none" xmlns="http://www.w3.org/2000/svg">
<path d="M17.8207 15.2933C18.0154 15.4887 18.1614 15.7272 18.2467 15.9895C18.3321 16.2518 18.3546 16.5305 18.3122 16.8031C18.2699 17.0757 18.1639 17.3344 18.0029 17.5585C17.842 17.7825 17.6305 17.9654 17.3857 18.0925C15.9866 18.8403 14.3565 19.0314 12.8223 18.6275C8.75067 17.6025 2.89817 11.75 1.87317 7.67832C1.46927 6.1442 1.66038 4.51409 2.40817 3.11499C2.53525 2.87016 2.7182 2.6587 2.94221 2.49772C3.16622 2.33675 3.42498 2.2308 3.69756 2.18844C3.97014 2.14608 4.24886 2.16851 4.51115 2.2539C4.77345 2.3393 5.01195 2.48527 5.20733 2.67999L6.94483 4.41666C7.1954 4.6647 7.36494 4.98283 7.43114 5.32914C7.49734 5.67545 7.45708 6.03368 7.31567 6.35666C7.16092 6.71902 6.94119 7.05003 6.66733 7.33332C4.68067 9.31999 11.1815 15.8208 13.1673 13.8333C13.4507 13.5585 13.782 13.3379 14.1448 13.1825C14.4678 13.0408 14.8261 13.0005 15.1724 13.0667C15.5188 13.1329 15.8369 13.3026 16.0848 13.5533L17.8207 15.2933Z" fill="#4B5FA5"/>
</svg>
