<svg width="20" height="21" viewBox="0 0 20 21" fill="none" xmlns="http://www.w3.org/2000/svg">
<g clip-path="url(#clip0_5863_1147)">
<path d="M9.99947 11.3232C12.9882 11.3232 15.4111 8.90034 15.4111 5.91158C15.4111 2.92281 12.9882 0.5 9.99947 0.5C7.0107 0.5 4.58789 2.92285 4.58789 5.91162C4.59156 8.89882 7.01226 11.3195 9.99947 11.3232ZM9.99947 2.99766C11.6088 2.99766 12.9134 4.30226 12.9134 5.91162C12.9134 7.52097 11.6088 8.82557 9.99947 8.82557C8.39011 8.82557 7.08551 7.52097 7.08551 5.91162C7.08551 4.30226 8.39015 2.99766 9.99947 2.99766Z" fill="#4F70E2"/>
<path d="M15.301 13.8874C15.8891 13.5 16.2435 12.8432 16.2443 12.139C16.2525 11.5545 15.9227 11.0178 15.3976 10.7611C14.8581 10.4916 14.2123 10.5523 13.7325 10.9176C11.5086 12.5389 8.49245 12.5389 6.26863 10.9176C5.78806 10.5542 5.14339 10.4936 4.60351 10.7611C4.07865 11.0178 3.74868 11.5539 3.75598 12.1381C3.75723 12.8422 4.11147 13.4988 4.69928 13.8865C5.45341 14.388 6.27468 14.7804 7.13867 15.0521C7.28522 15.0976 7.43644 15.1398 7.59243 15.1786L5.07646 17.6388C4.41645 18.2792 4.40049 19.3334 5.04087 19.9934C5.68125 20.6534 6.73538 20.6694 7.39542 20.029C7.40916 20.0156 7.42267 20.0021 7.43593 19.9883L10.0002 17.3341L12.5695 19.9933C13.2093 20.6538 14.2635 20.6706 14.924 20.0308C15.5845 19.3909 15.6013 18.3367 14.9615 17.6762C14.9481 17.6624 14.9345 17.6488 14.9206 17.6355L12.4088 15.1778C12.5647 15.1378 12.7165 15.0954 12.8642 15.0504C13.7272 14.7798 14.5477 14.3882 15.301 13.8874Z" fill="#4F70E2"/>
</g>
<defs>
<clipPath id="clip0_5863_1147">
<rect width="20" height="20" fill="white" transform="translate(0 0.5)"/>
</clipPath>
</defs>
</svg>
