<svg width="18" height="17" viewBox="0 0 18 17" fill="none" xmlns="http://www.w3.org/2000/svg">
<path d="M16.8207 13.2933C17.0154 13.4887 17.1614 13.7272 17.2467 13.9895C17.3321 14.2518 17.3546 14.5305 17.3122 14.8031C17.2699 15.0757 17.1639 15.3344 17.0029 15.5584C16.842 15.7825 16.6305 15.9654 16.3857 16.0925C14.9866 16.8403 13.3565 17.0314 11.8223 16.6275C7.75067 15.6025 1.89817 9.74999 0.873166 5.67832C0.469269 4.1442 0.660381 2.51409 1.40817 1.11499C1.53525 0.870158 1.7182 0.658695 1.94221 0.497724C2.16622 0.336752 2.42498 0.230797 2.69756 0.188438C2.97014 0.146079 3.24886 0.168506 3.51115 0.253904C3.77345 0.339303 4.01195 0.485271 4.20733 0.679989L5.94483 2.41666C6.1954 2.6647 6.36494 2.98283 6.43114 3.32914C6.49734 3.67545 6.45708 4.03368 6.31567 4.35666C6.16092 4.71902 5.94119 5.05003 5.66733 5.33332C3.68067 7.31999 10.1815 13.8208 12.1673 11.8333C12.4507 11.5585 12.782 11.3379 13.1448 11.1825C13.4678 11.0408 13.8261 11.0005 14.1724 11.0667C14.5188 11.1329 14.8369 11.3026 15.0848 11.5533L16.8207 13.2933Z" fill="#4F70E2"/>
</svg>
