<svg width="18" height="17" viewBox="0 0 18 17" fill="none" xmlns="http://www.w3.org/2000/svg">
<path d="M16.8197 13.2933C17.0144 13.4887 17.1604 13.7272 17.2458 13.9895C17.3312 14.2518 17.3536 14.5305 17.3112 14.8031C17.2689 15.0757 17.1629 15.3344 17.002 15.5585C16.841 15.7825 16.6295 15.9654 16.3847 16.0925C14.9856 16.8403 13.3555 17.0314 11.8214 16.6275C7.74969 15.6025 1.89719 9.74999 0.872189 5.67832C0.468293 4.1442 0.659405 2.51409 1.40719 1.11499C1.53427 0.870158 1.71722 0.658695 1.94123 0.497724C2.16524 0.336752 2.42401 0.230797 2.69658 0.188438C2.96916 0.146079 3.24788 0.168506 3.51018 0.253904C3.77247 0.339303 4.01097 0.485271 4.20636 0.679989L5.94386 2.41666C6.19442 2.6647 6.36397 2.98283 6.43016 3.32914C6.49636 3.67545 6.4561 4.03368 6.31469 4.35666C6.15994 4.71902 5.94022 5.05003 5.66636 5.33332C3.67969 7.31999 10.1805 13.8208 12.1664 11.8333C12.4497 11.5585 12.781 11.3379 13.1439 11.1825C13.4668 11.0408 13.8251 11.0005 14.1714 11.0667C14.5178 11.1329 14.8359 11.3026 15.0839 11.5533L16.8197 13.2933Z" fill="#D3D3D3"/>
</svg>