<svg width="19" height="11" viewBox="0 0 19 11" fill="none" xmlns="http://www.w3.org/2000/svg">
<path d="M9.39674 10.4503H10.4424C10.4424 10.4503 10.7586 10.4153 10.9194 10.2414C11.0681 10.0817 11.0626 9.78201 11.0626 9.78201C11.0626 9.78201 11.0419 8.37863 11.6938 8.17189C12.3359 7.96844 13.1606 9.52824 14.0346 10.1288C14.6953 10.5827 15.1973 10.4832 15.1973 10.4832L17.5348 10.4503C17.5348 10.4503 18.7577 10.3749 18.178 9.41339C18.131 9.33464 17.84 8.7024 16.4399 7.40293C14.9742 6.0422 15.1711 6.26316 16.9365 3.91033C18.0118 2.47741 18.4416 1.60234 18.3071 1.22825C18.1791 0.871663 17.3883 0.965732 17.3883 0.965732L14.7587 0.981046C14.7587 0.981046 14.564 0.954794 14.4185 1.04121C14.2774 1.12653 14.1866 1.32341 14.1866 1.32341C14.1866 1.32341 13.7699 2.43256 13.2142 3.37544C12.0427 5.36512 11.5735 5.47013 11.382 5.34653C10.9369 5.05885 11.0484 4.18925 11.0484 3.57233C11.0484 1.64391 11.3405 0.839942 10.4785 0.632114C10.192 0.563202 9.98194 0.517261 9.25016 0.509605C8.31166 0.49976 7.51644 0.512886 7.06688 0.732746C6.76717 0.87932 6.53637 1.20638 6.67747 1.22497C6.85139 1.24794 7.24517 1.33107 7.45409 1.61547C7.72427 1.9819 7.71443 2.80665 7.71443 2.80665C7.71443 2.80665 7.86975 5.07635 7.35237 5.35856C6.99687 5.55217 6.51012 5.15729 5.46551 3.35138C4.93063 2.42709 4.52591 1.40436 4.52591 1.40436C4.52591 1.40436 4.44825 1.21403 4.30933 1.11231C4.14088 0.988703 3.90461 0.949325 3.90461 0.949325L1.40411 0.964638C1.40411 0.964638 1.02893 0.975577 0.891108 1.13856C0.768599 1.28404 0.881263 1.58375 0.881263 1.58375C0.881263 1.58375 2.83922 6.16362 5.05532 8.4727C7.08876 10.5893 9.39674 10.4503 9.39674 10.4503Z" fill="#4F70E2"/>
</svg>
