<svg width="20" height="20" viewBox="0 0 20 20" fill="none" xmlns="http://www.w3.org/2000/svg">
<path d="M0.975768 19.9993C0.782596 19.9994 0.593752 19.9421 0.433124 19.8348C0.272496 19.7275 0.147299 19.575 0.0733705 19.3965C-0.000558236 19.218 -0.0198977 19.0217 0.0177982 18.8322C0.0554942 18.6427 0.148532 18.4687 0.285143 18.3321L18.332 0.285273C18.5152 0.102108 18.7636 -0.000793457 19.0226 -0.000793457C19.2817 -0.000793457 19.5301 0.102108 19.7133 0.285273C19.8964 0.468438 19.9993 0.716863 19.9993 0.975898C19.9993 1.23493 19.8964 1.48336 19.7133 1.66652L1.66639 19.7134C1.57578 19.8042 1.46813 19.8762 1.34961 19.9253C1.23109 19.9743 1.10404 19.9995 0.975768 19.9993Z" fill="#171717"/>
<path d="M19.0228 19.9993C18.8946 19.9995 18.7675 19.9743 18.649 19.9253C18.5305 19.8762 18.4228 19.8042 18.3322 19.7134L0.285334 1.66652C0.102169 1.48336 -0.000732422 1.23493 -0.000732422 0.975898C-0.000732422 0.716863 0.102169 0.468438 0.285334 0.285273C0.468499 0.102108 0.716924 -0.000793457 0.975959 -0.000793457C1.23499 -0.000793457 1.48342 0.102108 1.66658 0.285273L19.7135 18.3321C19.8501 18.4687 19.9431 18.6427 19.9808 18.8322C20.0185 19.0217 19.9992 19.218 19.9252 19.3965C19.8513 19.575 19.7261 19.7275 19.5655 19.8348C19.4048 19.9421 19.216 19.9994 19.0228 19.9993V19.9993Z" fill="#171717"/>
</svg>
