<svg width="90" height="90" viewBox="0 0 90 90" fill="none" xmlns="http://www.w3.org/2000/svg">
<rect x="1" y="1" width="88" height="88" rx="44" fill="#FF3998" stroke="#FF3998" stroke-width="2"/>
<path d="M35.5394 39.0895C35.9777 39.241 36.2465 39.6818 36.1807 40.1407L34.2678 53.4684C35.7148 54.0355 37.145 54.4906 38.5649 54.8341C38.5649 50.0243 42.2707 46.9115 46.278 46.9115C48.3424 46.9115 50.2831 47.7114 51.7436 49.1635C53.0913 50.5048 53.8809 52.2528 53.9949 54.1284C55.3678 53.6727 56.751 53.1126 58.1496 52.4481L56.5344 41.3273C56.4596 40.8156 56.0098 40.4295 55.487 40.4295H46.0769C45.5342 40.4295 45.1021 39.9827 45.1101 39.4479C45.2223 32.0282 42.9928 29.8029 40.1455 28.5418C39.8158 28.3957 39.4484 28.652 39.4693 29.0119L39.5761 30.8459C39.6161 31.3074 39.4092 31.7592 39.0302 32.0318C38.8714 32.1461 39.2742 31.9855 32.6268 34.3496C31.496 34.7527 31.0286 36.0837 31.651 37.0495C32.371 38.1612 33.2996 38.3172 35.5394 39.0895Z" fill="white"/>
<path d="M28.5 53.8452V57.0151C28.5 57.2387 28.6303 57.4412 28.8328 57.5361C38.5641 62.0966 51.4146 62.0965 61.1668 57.5353C61.3695 57.4405 61.5 57.2379 61.5 57.0141V53.861C61.5 53.4291 61.0407 53.1522 60.6585 53.3535C50.2857 58.8174 40.3868 59.0952 29.3386 53.3361C28.9568 53.1372 28.5 53.4146 28.5 53.8452V53.8452Z" fill="white"/>
</svg>
