<svg width="90" height="90" viewBox="0 0 90 90" fill="none" xmlns="http://www.w3.org/2000/svg">
<rect x="1" y="1" width="88" height="88" rx="44" fill="#CE2BBE" stroke="#CE2BBE" stroke-width="2"/>
<path d="M40.2149 34.7994V49.4901C39.3601 48.7276 38.2336 48.2633 37.0006 48.2633C34.3351 48.2633 32.1666 50.4319 32.1666 53.0974C32.1666 55.763 34.3351 57.9315 37.0006 57.9315C39.6628 57.9315 41.8291 55.7684 41.8346 53.1075H41.8347V41.3011L56.2137 37.6562V45.5904C55.3588 44.8278 54.2324 44.3635 52.9994 44.3635C50.3338 44.3635 48.1653 46.5321 48.1653 49.1976C48.1653 51.8631 50.3338 54.0317 52.9994 54.0317C55.6649 54.0317 57.8334 51.8631 57.8334 49.1976V30.3333L40.2149 34.7994Z" fill="white"/>
</svg>
