<svg width="90" height="90" viewBox="0 0 90 90" fill="none" xmlns="http://www.w3.org/2000/svg">
<rect x="1" y="1" width="88" height="88" rx="44" fill="#6A52FF" stroke="#6A52FF" stroke-width="2"/>
<path d="M59.7228 41.0237C59.7002 40.9976 59.681 40.9723 59.6542 40.9469L58.4764 39.8103C59.4533 39.5887 60.5048 38.7703 60.5048 37.9307C60.5048 36.9526 59.1473 36.6055 57.9887 36.6055C56.7773 36.6055 56.6367 37.4355 56.6223 38.022L53.5835 35.0923C52.9661 34.4811 51.7951 34.0002 50.9198 34.0002H45.0013H45H39.0801C38.2055 34.0002 37.0352 34.4811 36.4172 35.0923L33.379 38.022C33.3633 37.4355 33.2226 36.6055 32.0126 36.6055C30.8526 36.6055 29.4958 36.9526 29.4958 37.9307C29.4958 38.7703 30.5481 39.5887 31.5249 39.8103L30.3471 40.9469C30.3203 40.9723 30.3018 40.9976 30.2785 41.0237C29.0183 42.1006 28.1952 44.0981 28.1952 45.5475V49.8546C28.1952 50.9 28.6075 51.8487 29.2735 52.5559V54.2262C29.2735 55.203 30.0912 55.9994 31.0968 55.9994H33.3015C34.3071 55.9994 35.1241 55.2044 35.1241 54.2262V53.7989H45H45.0013H54.8765V54.2262C54.8765 55.2044 55.6928 55.9994 56.6998 55.9994H58.9038C59.9101 55.9994 60.7264 55.203 60.7264 54.2262V52.5559C61.3932 51.8487 61.8047 50.9 61.8047 49.8546V45.5475C61.8061 44.0981 60.983 42.1006 59.7228 41.0237ZM37.5332 36.3942C37.9606 36.0382 38.7076 35.7679 39.0801 35.7679H45H45.0013H50.9212C51.2937 35.7679 52.0407 36.0382 52.4681 36.3942L56.4528 40.2561H45.0013H45H33.5491L37.5332 36.3942ZM29.5623 44.8959C29.5623 43.8354 30.3923 42.9745 31.4172 42.9745C32.4413 42.9745 35.7881 44.9391 35.7881 45.9996C35.7881 47.0601 32.4413 46.8145 31.4172 46.8145C30.3923 46.8145 29.5623 45.9571 29.5623 44.8959ZM35.1248 51.9104H34.7715H34.4183L32.3226 51.9139C31.7409 51.7328 31.3307 51.5215 31.0406 51.2944C30.8938 51.1799 30.7813 51.0605 30.6935 50.9419C30.605 50.8218 30.5405 50.7038 30.4987 50.5859C30.238 49.8491 30.7765 49.1721 30.7765 49.1721H34.3531L36.7375 51.9091L35.1248 51.9104ZM50.1433 51.9118H45.0013H45H39.858C38.7858 51.9118 37.9153 51.0413 37.9153 49.9699H45H45.0013H52.086C52.086 51.0427 51.2155 51.9118 50.1433 51.9118ZM50.5947 48.6446H45.0013H45H39.4066C38.2405 48.6446 37.2938 47.2069 37.2938 45.4337H45H45.0013H52.7075C52.7075 47.2075 51.7608 48.6446 50.5947 48.6446ZM59.5033 50.5872C59.4608 50.7052 59.3963 50.8232 59.3078 50.9426C59.2207 51.0612 59.1082 51.1806 58.9607 51.2951C58.6713 51.5222 58.2604 51.7348 57.6787 51.9145L55.583 51.9111H55.2298H54.8765H53.2624L55.6482 49.1742H59.2241C59.2241 49.1735 59.7633 49.8491 59.5033 50.5872ZM58.5841 46.8145C57.5607 46.8145 54.2139 47.0587 54.2139 45.9996C54.2139 44.9405 57.5607 42.9745 58.5841 42.9745C59.609 42.9745 60.439 43.8354 60.439 44.8959C60.439 45.9557 59.609 46.8145 58.5841 46.8145Z" fill="white"/>
</svg>
