<svg width="90" height="90" viewBox="0 0 90 90" fill="none" xmlns="http://www.w3.org/2000/svg">
<rect x="1" y="1" width="88" height="88" rx="44" fill="#1C08FD" stroke="#1C08FD" stroke-width="2"/>
<path d="M40.5233 43.5478C41.3008 43.5478 41.9312 42.9174 41.9312 42.1399C41.9312 41.3623 41.3008 40.7319 40.5233 40.7319C39.7457 40.7319 39.1153 41.3623 39.1153 42.1399C39.1153 42.9174 39.7457 43.5478 40.5233 43.5478Z" fill="white"/>
<path d="M49.4683 49.2622C50.2459 49.2622 50.8762 48.6318 50.8762 47.8542C50.8762 47.0766 50.2459 46.4463 49.4683 46.4463C48.6907 46.4463 48.0604 47.0766 48.0604 47.8542C48.0604 48.6318 48.6907 49.2622 49.4683 49.2622Z" fill="white"/>
<path d="M61.0756 46.8603L60.5649 46.1632C60.0127 45.4041 59.9989 44.3757 60.5442 43.6027L61.0411 42.8988C61.8003 41.8221 61.4483 40.3245 60.2819 39.6964L59.5227 39.2892C58.6945 38.8475 58.239 37.9227 58.3978 36.991L58.5427 36.1421C58.7635 34.8446 57.7904 33.6437 56.4722 33.5885L55.6095 33.554C54.6709 33.5126 53.8565 32.8776 53.5942 31.9735L53.3527 31.1453C52.9869 29.8754 51.5928 29.2197 50.3781 29.7443L49.5844 30.0824C48.7217 30.4551 47.714 30.2343 47.086 29.5303L46.5132 28.8885C45.6366 27.9084 44.0976 27.9153 43.228 28.9161L42.662 29.5648C42.0409 30.2757 41.0402 30.5103 40.1706 30.1515L39.37 29.8202C38.1484 29.3164 36.768 29.9996 36.4161 31.2695L36.1883 32.1046C35.9399 33.0156 35.1393 33.6644 34.2006 33.7127L33.3379 33.761C32.0197 33.8369 31.0673 35.0516 31.3089 36.3491L31.4676 37.198C31.6401 38.1228 31.1984 39.0546 30.3771 39.5101L29.6249 39.9311C28.4723 40.5729 28.141 42.0775 28.9209 43.1403L29.4316 43.8374C29.9837 44.5966 29.9975 45.6249 29.4523 46.3979L28.9554 47.1019C28.1962 48.1785 28.5482 49.6762 29.7146 50.3042L30.4738 50.7114C31.302 51.1531 31.7575 52.0779 31.5987 53.0097L31.4538 53.8586C31.2329 55.1561 32.2061 56.357 33.5243 56.4122L34.387 56.4467C35.3256 56.4881 36.14 57.123 36.4023 58.0272L36.6438 58.8554C37.0096 60.1253 38.4037 60.7809 39.6184 60.2564L40.4121 59.9182C41.2748 59.5455 42.2825 59.7664 42.9105 60.4703L43.4833 61.1122C44.3667 62.0922 45.9058 62.0853 46.7685 61.0846L47.3344 60.4358C47.9556 59.725 48.9563 59.4903 49.8259 59.8492L50.6265 60.1805C51.8481 60.6843 53.2284 60.001 53.5804 58.7311L53.8082 57.896C54.0566 56.985 54.8572 56.3363 55.7958 56.2879L56.6586 56.2396C57.9768 56.1637 58.9292 54.949 58.6876 53.6515L58.5289 52.8026C58.3564 51.8778 58.7981 50.9461 59.6194 50.4906L60.3716 50.0696C61.5242 49.4346 61.8555 47.9301 61.0756 46.8603ZM37.12 42.1396C37.12 40.2624 38.6384 38.744 40.5156 38.744C42.3929 38.744 43.9112 40.2624 43.9112 42.1396C43.9112 44.0168 42.3929 45.5352 40.5156 45.5352C38.6384 45.5352 37.12 44.0099 37.12 42.1396ZM41.1713 50.8978C40.8814 51.2498 40.3569 51.2981 40.0049 51.0082C39.6529 50.7183 39.6046 50.1938 39.8945 49.8418L48.8045 39.1098C49.0944 38.7578 49.6189 38.7095 49.9709 38.9994C50.3229 39.2892 50.3712 39.8137 50.0813 40.1657L41.1713 50.8978ZM49.4671 51.2498C47.5898 51.2498 46.0714 49.7314 46.0714 47.8542C46.0714 45.9769 47.5898 44.4585 49.4671 44.4585C51.3443 44.4585 52.8627 45.9769 52.8627 47.8542C52.8627 49.7314 51.3443 51.2498 49.4671 51.2498Z" fill="white"/>
</svg>
