<svg width="90" height="90" viewBox="0 0 90 90" fill="none" xmlns="http://www.w3.org/2000/svg">
<rect x="1" y="1" width="88" height="88" rx="44" stroke="#E31B4B" stroke-width="2"/>
<path d="M42.6736 30.5415C42.4743 30.5492 42.2852 30.6314 42.1437 30.772C41.9962 30.9207 41.9134 31.1216 41.9132 31.331V35.7476C41.9172 36.0531 41.806 36.349 41.6018 36.5763C41.3976 36.8036 41.1153 36.9457 40.811 36.9743C40.6479 36.9863 40.4839 36.9645 40.3295 36.9103C40.1752 36.8561 40.0336 36.7706 39.9138 36.6592C39.7939 36.5478 39.6983 36.4129 39.633 36.2629C39.5676 36.1129 39.534 35.951 39.534 35.7873V31.3946C39.5345 31.2763 39.5113 31.1591 39.4658 31.0499C39.4203 30.9407 39.3534 30.8418 39.2691 30.7588C39.1965 30.6874 39.1103 30.6314 39.0157 30.5941C38.921 30.5567 38.8198 30.5389 38.718 30.5415C38.5187 30.5492 38.3296 30.6314 38.1881 30.772C38.0407 30.9207 37.9578 31.1216 37.9576 31.331V35.7873C37.9576 36.1035 37.832 36.4068 37.6084 36.6304C37.3849 36.854 37.0816 36.9796 36.7654 36.9796C36.4492 36.9796 36.146 36.854 35.9224 36.6304C35.6988 36.4068 35.5732 36.1035 35.5732 35.7873V31.3946C35.5731 31.2768 35.5497 31.1602 35.5042 31.0515C35.4587 30.9428 35.3921 30.8442 35.3082 30.7614C35.2389 30.6914 35.1564 30.6359 35.0654 30.5982C34.9744 30.5604 34.8769 30.5412 34.7784 30.5415H34.7572C34.5575 30.5476 34.3678 30.6301 34.2273 30.772C34.0788 30.9203 33.995 31.1212 33.9941 31.331V37.3876C33.9941 39.213 35.4937 40.7126 36.776 41.4412C37.0836 41.6147 37.3353 41.8724 37.5014 42.184C37.6676 42.4957 37.7413 42.8483 37.7139 43.2004L36.6144 57.0859C36.6012 57.4018 36.6513 57.7171 36.7619 58.0134C36.8724 58.3096 37.0412 58.5807 37.2582 58.8106C37.4474 59.0147 37.6768 59.1775 37.9318 59.2889C38.1869 59.4002 38.4622 59.4577 38.7405 59.4577C39.0189 59.4577 39.2942 59.4002 39.5492 59.2889C39.8043 59.1775 40.0337 59.0147 40.2229 58.8106C40.4414 58.5779 40.611 58.3037 40.7216 58.0043C40.8322 57.7048 40.8815 57.3862 40.8667 57.0673L39.7725 43.2745C39.7415 42.8866 39.8333 42.4988 40.0349 42.166C40.2365 41.8331 40.5377 41.5722 40.8958 41.42C41.324 41.2558 41.7251 41.028 42.0854 40.7444C42.5275 40.3044 42.878 39.7813 43.1167 39.2051C43.3555 38.629 43.4777 38.0112 43.4763 37.3876V31.3973C43.4763 31.2794 43.4528 31.1628 43.4074 31.0541C43.3619 30.9454 43.2953 30.8468 43.2114 30.7641C43.1409 30.6932 43.0571 30.6371 42.9648 30.5989C42.8725 30.5607 42.7735 30.5412 42.6736 30.5415Z" fill="#E31B4B"/>
<path d="M51.2602 30.3325C50.0017 30.3332 48.7949 30.8333 47.9047 31.7229C47.0146 32.6126 46.5139 33.8191 46.5125 35.0776V37.5945C46.5125 39.4173 48.0067 40.9142 49.2837 41.6428C49.5926 41.8169 49.8452 42.0759 50.0114 42.3891C50.1776 42.7023 50.2506 43.0566 50.2216 43.41L49.1327 57.2504C49.1187 57.5749 49.1699 57.899 49.2832 58.2034C49.3965 58.5078 49.5697 58.7865 49.7924 59.0229C49.979 59.2258 50.2057 59.3877 50.4581 59.4985C50.7105 59.6093 50.9832 59.6665 51.2588 59.6665C51.5345 59.6665 51.8072 59.6093 52.0596 59.4985C52.312 59.3877 52.5387 59.2258 52.7253 59.0229C52.9498 58.7833 53.1239 58.5011 53.2372 58.193C53.3505 57.8849 53.4008 57.5572 53.385 57.2292L52.2961 43.41C52.2687 43.0579 52.3424 42.7053 52.5085 42.3936C52.6747 42.082 52.9264 41.8243 53.234 41.6508C54.511 40.9222 56.0052 39.4253 56.0052 37.6025V35.0855C56.0063 34.4617 55.8843 33.8439 55.6463 33.2672C55.4083 32.6906 55.059 32.1666 54.6183 31.7251C54.1775 31.2837 53.6541 30.9334 53.0779 30.6945C52.5016 30.4555 51.884 30.3325 51.2602 30.3325ZM53.8857 35.6075C53.7452 35.6075 53.6104 35.5517 53.511 35.4523C53.4117 35.3529 53.3558 35.2181 53.3558 35.0776C53.3551 34.522 53.1341 33.9894 52.7413 33.5965C52.3484 33.2036 51.8158 32.9826 51.2602 32.9819C51.1196 32.9819 50.9849 32.9261 50.8855 32.8267C50.7861 32.7274 50.7303 32.5926 50.7303 32.452C50.7303 32.3115 50.7861 32.1767 50.8855 32.0774C50.9849 31.978 51.1196 31.9222 51.2602 31.9222C52.0966 31.9236 52.8984 32.2565 53.4898 32.8479C54.0813 33.4394 54.4142 34.2412 54.4156 35.0776C54.4156 35.2181 54.3598 35.3529 54.2604 35.4523C54.161 35.5517 54.0263 35.6075 53.8857 35.6075Z" fill="#E31B4B"/>
</svg>
