<svg width="90" height="90" viewBox="0 0 90 90" fill="none" xmlns="http://www.w3.org/2000/svg">
<rect x="1" y="1" width="88" height="88" rx="44" stroke="#FC69FF" stroke-width="2"/>
<path d="M46.886 55.2731C34.8029 43.1902 46.8163 55.2034 34.7328 43.1201C34.397 42.7842 33.8534 42.7842 33.5176 43.1201L32.3023 44.3354C31.297 45.3407 31.297 46.9761 32.3023 47.9814L32.91 48.5889L32.3023 49.1966C31.2971 50.202 31.2971 51.8374 32.3023 52.8426L37.1636 57.7038C38.1688 58.709 39.8042 58.709 40.8095 57.7038L41.4171 57.0961L42.0248 57.7038C43.03 58.709 44.6654 58.709 45.6707 57.7038L46.886 56.4886C47.2219 56.1527 47.2219 55.609 46.886 55.2731Z" fill="#FC69FF"/>
<path d="M57.6954 42.0252L57.0877 41.4176L57.6954 40.8099C58.7006 39.8047 58.7006 38.1691 57.6954 37.164L52.8341 32.3028C51.8289 31.2975 50.1935 31.2975 49.1882 32.3028L48.5805 32.9104L47.9729 32.3028C46.9676 31.2975 45.3322 31.2975 44.3269 32.3028L43.1117 33.518C42.7758 33.854 42.7758 34.3976 43.1117 34.7333L55.2648 46.8865C55.6006 47.2223 56.1442 47.2223 56.4801 46.8865L57.6954 45.6711C58.7006 44.6659 58.7006 43.0304 57.6954 42.0252Z" fill="#FC69FF"/>
<path d="M58.9117 31.0875C57.9065 30.0822 56.271 30.0822 55.2658 31.0874L54.6581 31.6951L58.3041 35.341L58.9117 34.7333C59.9169 33.7282 59.9169 32.0926 58.9117 31.0875Z" fill="#FC69FF"/>
<path d="M31.6944 54.6655L31.0868 55.2731C30.0816 56.2784 30.0816 57.9138 31.0868 58.919C32.092 59.9243 33.7275 59.9243 34.7327 58.919L35.3403 58.3113L31.6944 54.6655Z" fill="#FC69FF"/>
<path d="M46.1502 40.2024L40.2011 46.158L43.8471 49.8039L49.7962 43.8484L46.1502 40.2024Z" fill="#FC69FF"/>
</svg>
